<svg width="2483" height="1280" viewBox="0 0 2483 1280" fill="none" xmlns="http://www.w3.org/2000/svg">
<path d="M612.943 353.847V173.623H706.639V594.487H612.943V414.263H473.167V594.487H379.471V173.623H473.167V353.847H612.943Z" fill="black"/>
<path d="M991.443 313.911V173.623H1085.14V313.911H1038.03V361.015H991.443V407.607H967.891V594.487H874.707V407.607H851.155V361.015H804.563V313.911H757.971V173.623H851.155V313.911H897.747V361.015H944.851V313.911H991.443Z" fill="black"/>
<path d="M1369.94 220.727V267.319H1417.05V500.791H1369.94V547.895H1323.35V594.487H1136.47V173.623H1323.35V220.727H1369.94ZM1323.35 500.791V267.319H1229.65V500.791H1323.35Z" fill="black"/>
<path d="M1712.45 173.623V220.727H1759.05V361.015H1712.45V454.199H1759.05V594.487H1665.86V454.199H1572.17V594.487H1478.47V173.623H1712.45ZM1665.86 361.015V267.319H1572.17V361.015H1665.86Z" fill="black"/>
<path d="M2101.05 220.727V267.319H2147.64V594.487H2054.45V484.407H1914.17V594.487H1820.47V267.319H1867.57V220.727H1914.17V173.623H2054.45V220.727H2101.05ZM2054.45 423.991V313.911H2007.35V267.319H1960.76V313.911H1914.17V423.991H2054.45Z" fill="black"/>
<path d="M416.547 783.727V830.319H463.139V1157.49H369.955V1047.41H229.667V1157.49H135.971V830.319H183.075V783.727H229.667V736.623H369.955V783.727H416.547ZM369.955 986.991V876.911H322.851V830.319H276.259V876.911H229.667V986.991H369.955Z" fill="black"/>
<path d="M805.047 783.727V876.911H711.351V830.319H617.655V876.911H664.759V924.015H757.943V970.607H805.047V1110.9H757.943V1157.49H571.063V1110.9H524.471V1017.2H617.655V1063.79H711.351V1017.2H664.759V970.607H571.063V924.015H524.471V783.727H571.063V736.623H757.943V783.727H805.047Z" fill="black"/>
<path d="M949.655 1157.49V830.319H856.471V736.623H1137.05V830.319H1043.35V1157.49H949.655Z" fill="black"/>
<path d="M1225.07 783.727V736.623H1411.95V830.319H1271.67V916.847H1411.95V977.263H1271.67V1063.79H1411.95V1157.49H1225.07V1110.9H1177.97V783.727H1225.07Z" fill="black"/>
<path d="M1707.45 736.623V783.727H1754.05V924.015H1707.45V1017.2H1754.05V1157.49H1660.86V1017.2H1567.17V1157.49H1473.47V736.623H1707.45ZM1660.86 924.015V830.319H1567.17V924.015H1660.86Z" fill="black"/>
<path d="M1815.47 1157.49V1063.79H1862.06V830.319H1815.47V736.623H2002.35V830.319H1955.76V1063.79H2002.35V1157.49H1815.47Z" fill="black"/>
<path d="M2344.55 783.727V830.319H2391.14V1157.49H2297.95V1047.41H2157.67V1157.49H2063.97V830.319H2111.07V783.727H2157.67V736.623H2297.95V783.727H2344.55ZM2297.95 986.991V876.911H2250.85V830.319H2204.26V876.911H2157.67V986.991H2297.95Z" fill="black"/>
<g filter="url(#filter0_ddd_1255_7639)">
<path d="M567.972 303.224V123H661.668V543.864H567.972V363.64H428.196V543.864H334.5V123H428.196V303.224H567.972Z" fill="url(#paint0_linear_1255_7639)"/>
<path d="M946.472 263.288V123H1040.17V263.288H993.064V310.392H946.472V356.984H922.92V543.864H829.736V356.984H806.184V310.392H759.592V263.288H713V123H806.184V263.288H852.776V310.392H899.88V263.288H946.472Z" fill="url(#paint1_linear_1255_7639)"/>
<path d="M1324.97 170.104V216.696H1372.08V450.168H1324.97V497.272H1278.38V543.864H1091.5V123H1278.38V170.104H1324.97ZM1278.38 450.168V216.696H1184.68V450.168H1278.38Z" fill="url(#paint2_linear_1255_7639)"/>
<path d="M1667.48 123V170.104H1714.08V310.392H1667.48V403.576H1714.08V543.864H1620.89V403.576H1527.2V543.864H1433.5V123H1667.48ZM1620.89 310.392V216.696H1527.2V310.392H1620.89Z" fill="url(#paint3_linear_1255_7639)"/>
<path d="M2056.08 170.104V216.696H2102.67V543.864H2009.48V433.784H1869.2V543.864H1775.5V216.696H1822.6V170.104H1869.2V123H2009.48V170.104H2056.08ZM2009.48 373.368V263.288H1962.38V216.696H1915.79V263.288H1869.2V373.368H2009.48Z" fill="url(#paint4_linear_1255_7639)"/>
<path d="M371.576 733.104V779.696H418.168V1106.86H324.984V996.784H184.696V1106.86H91V779.696H138.104V733.104H184.696V686H324.984V733.104H371.576ZM324.984 936.368V826.288H277.88V779.696H231.288V826.288H184.696V936.368H324.984Z" fill="url(#paint5_linear_1255_7639)"/>
<path d="M760.076 733.104V826.288H666.38V779.696H572.684V826.288H619.788V873.392H712.972V919.984H760.076V1060.27H712.972V1106.86H526.092V1060.27H479.5V966.576H572.684V1013.17H666.38V966.576H619.788V919.984H526.092V873.392H479.5V733.104H526.092V686H712.972V733.104H760.076Z" fill="url(#paint6_linear_1255_7639)"/>
<path d="M904.684 1106.86V779.696H811.5V686H1092.08V779.696H998.38V1106.86H904.684Z" fill="url(#paint7_linear_1255_7639)"/>
<path d="M1180.1 733.104V686H1366.98V779.696H1226.7V866.224H1366.98V926.64H1226.7V1013.17H1366.98V1106.86H1180.1V1060.27H1133V733.104H1180.1Z" fill="url(#paint8_linear_1255_7639)"/>
<path d="M1662.48 686V733.104H1709.08V873.392H1662.48V966.576H1709.08V1106.86H1615.89V966.576H1522.2V1106.86H1428.5V686H1662.48ZM1615.89 873.392V779.696H1522.2V873.392H1615.89Z" fill="url(#paint9_linear_1255_7639)"/>
<path d="M1770.5 1106.86V1013.17H1817.09V779.696H1770.5V686H1957.38V779.696H1910.79V1013.17H1957.38V1106.86H1770.5Z" fill="url(#paint10_linear_1255_7639)"/>
<path d="M2299.58 733.104V779.696H2346.17V1106.86H2252.98V996.784H2112.7V1106.86H2019V779.696H2066.1V733.104H2112.7V686H2252.98V733.104H2299.58ZM2252.98 936.368V826.288H2205.88V779.696H2159.29V826.288H2112.7V936.368H2252.98Z" fill="url(#paint11_linear_1255_7639)"/>
</g>
<defs>
<filter id="filter0_ddd_1255_7639" x="53.1132" y="85.1132" width="2330.94" height="1059.64" filterUnits="userSpaceOnUse" color-interpolation-filters="sRGB">
<feFlood flood-opacity="0" result="BackgroundImageFix"/>
<feColorMatrix in="SourceAlpha" type="matrix" values="0 0 0 0 0 0 0 0 0 0 0 0 0 0 0 0 0 0 127 0" result="hardAlpha"/>
<feOffset/>
<feGaussianBlur stdDeviation="2.7062"/>
<feColorMatrix type="matrix" values="0 0 0 0 1 0 0 0 0 1 0 0 0 0 1 0 0 0 1 0"/>
<feBlend mode="normal" in2="BackgroundImageFix" result="effect1_dropShadow_1255_7639"/>
<feColorMatrix in="SourceAlpha" type="matrix" values="0 0 0 0 0 0 0 0 0 0 0 0 0 0 0 0 0 0 127 0" result="hardAlpha"/>
<feOffset/>
<feGaussianBlur stdDeviation="5.4124"/>
<feColorMatrix type="matrix" values="0 0 0 0 1 0 0 0 0 1 0 0 0 0 1 0 0 0 1 0"/>
<feBlend mode="normal" in2="effect1_dropShadow_1255_7639" result="effect2_dropShadow_1255_7639"/>
<feColorMatrix in="SourceAlpha" type="matrix" values="0 0 0 0 0 0 0 0 0 0 0 0 0 0 0 0 0 0 127 0" result="hardAlpha"/>
<feOffset/>
<feGaussianBlur stdDeviation="18.9434"/>
<feColorMatrix type="matrix" values="0 0 0 0 1 0 0 0 0 1 0 0 0 0 1 0 0 0 1 0"/>
<feBlend mode="normal" in2="effect2_dropShadow_1255_7639" result="effect3_dropShadow_1255_7639"/>
<feBlend mode="normal" in="SourceGraphic" in2="effect3_dropShadow_1255_7639" result="shape"/>
</filter>
<linearGradient id="paint0_linear_1255_7639" x1="1218.58" y1="123" x2="1218.58" y2="1106.86" gradientUnits="userSpaceOnUse">
<stop stop-color="white"/>
<stop offset="0.368447" stop-color="#A5A5A5"/>
<stop offset="0.920717" stop-color="#383838"/>
</linearGradient>
<linearGradient id="paint1_linear_1255_7639" x1="1218.58" y1="123" x2="1218.58" y2="1106.86" gradientUnits="userSpaceOnUse">
<stop stop-color="white"/>
<stop offset="0.368447" stop-color="#A5A5A5"/>
<stop offset="0.920717" stop-color="#383838"/>
</linearGradient>
<linearGradient id="paint2_linear_1255_7639" x1="1218.58" y1="123" x2="1218.58" y2="1106.86" gradientUnits="userSpaceOnUse">
<stop stop-color="white"/>
<stop offset="0.368447" stop-color="#A5A5A5"/>
<stop offset="0.920717" stop-color="#383838"/>
</linearGradient>
<linearGradient id="paint3_linear_1255_7639" x1="1218.58" y1="123" x2="1218.58" y2="1106.86" gradientUnits="userSpaceOnUse">
<stop stop-color="white"/>
<stop offset="0.368447" stop-color="#A5A5A5"/>
<stop offset="0.920717" stop-color="#383838"/>
</linearGradient>
<linearGradient id="paint4_linear_1255_7639" x1="1218.58" y1="123" x2="1218.58" y2="1106.86" gradientUnits="userSpaceOnUse">
<stop stop-color="white"/>
<stop offset="0.368447" stop-color="#A5A5A5"/>
<stop offset="0.920717" stop-color="#383838"/>
</linearGradient>
<linearGradient id="paint5_linear_1255_7639" x1="1218.58" y1="123" x2="1218.58" y2="1106.86" gradientUnits="userSpaceOnUse">
<stop stop-color="white"/>
<stop offset="0.368447" stop-color="#A5A5A5"/>
<stop offset="0.920717" stop-color="#383838"/>
</linearGradient>
<linearGradient id="paint6_linear_1255_7639" x1="1218.58" y1="123" x2="1218.58" y2="1106.86" gradientUnits="userSpaceOnUse">
<stop stop-color="white"/>
<stop offset="0.368447" stop-color="#A5A5A5"/>
<stop offset="0.920717" stop-color="#383838"/>
</linearGradient>
<linearGradient id="paint7_linear_1255_7639" x1="1218.58" y1="123" x2="1218.58" y2="1106.86" gradientUnits="userSpaceOnUse">
<stop stop-color="white"/>
<stop offset="0.368447" stop-color="#A5A5A5"/>
<stop offset="0.920717" stop-color="#383838"/>
</linearGradient>
<linearGradient id="paint8_linear_1255_7639" x1="1218.58" y1="123" x2="1218.58" y2="1106.86" gradientUnits="userSpaceOnUse">
<stop stop-color="white"/>
<stop offset="0.368447" stop-color="#A5A5A5"/>
<stop offset="0.920717" stop-color="#383838"/>
</linearGradient>
<linearGradient id="paint9_linear_1255_7639" x1="1218.58" y1="123" x2="1218.58" y2="1106.86" gradientUnits="userSpaceOnUse">
<stop stop-color="white"/>
<stop offset="0.368447" stop-color="#A5A5A5"/>
<stop offset="0.920717" stop-color="#383838"/>
</linearGradient>
<linearGradient id="paint10_linear_1255_7639" x1="1218.58" y1="123" x2="1218.58" y2="1106.86" gradientUnits="userSpaceOnUse">
<stop stop-color="white"/>
<stop offset="0.368447" stop-color="#A5A5A5"/>
<stop offset="0.920717" stop-color="#383838"/>
</linearGradient>
<linearGradient id="paint11_linear_1255_7639" x1="1218.58" y1="123" x2="1218.58" y2="1106.86" gradientUnits="userSpaceOnUse">
<stop stop-color="white"/>
<stop offset="0.368447" stop-color="#A5A5A5"/>
<stop offset="0.920717" stop-color="#383838"/>
</linearGradient>
</defs>
</svg>
